PathFileType	4	(X/Y/Z)	C:\Users\°ÂÌØÂü\Desktop\20210112\bx_y_0_901-Unnamed.trc
DataRate	CameraRate	NumFrames	NumMarkers	Units	OrigDataRate	OrigDataStartFrame	OrigNumFrames
50.00	50.00	       6	0	mm	50.00	1	       457
Frame#	Time	
		

1	0.000	-687.39032	-65.62411	1547.84143	-732.44983	294.70514	1527.63928	-621.52728	114.63006	1435.02100	-594.36023	1.23884	1048.10999	-590.41028	224.21538	1069.82922				-588.24817	0.74852	800.48438	-586.67114	220.90297	813.88507	-696.68475	274.79944	744.15710	-730.78516	251.66243	638.46393	-692.71863	146.26152	571.53796	-734.08069	247.24368	575.03949	-670.93054	22.38286	518.98364	-773.96820	255.89166	502.03714	-679.04761	208.24625	531.99939	-716.60138	79.26321	215.57410	-663.40161	-66.30142	163.74039	-711.34735	152.13945	216.08649	-771.49658	221.80823	205.21503	-882.61060	296.06824	144.54037	-674.36780	57.02934	156.03343	-603.19440	20.35422	165.63225	-675.00861	171.57059	156.91200	-594.48499	222.66698	173.38101	-667.66357	299.14450	159.89316	-630.42853	307.47803	162.63387	-561.71759	262.78061	166.33339	-528.20660	304.21338	146.40298	-674.54468	133.45737	1851.13269	-517.72174	-72.61513	142.64165	-796.07452	171.63783	183.87675	-766.48120	-4.26052	207.81265	-794.57166	56.41177	175.14581	-795.27472	98.25813	1058.26636	-765.47595	-32.61697	487.76703	-559.73370	-40.14186	164.63623	-875.85522	-78.73365	141.22168	-646.76202	284.80008	876.97571	-698.21106	-46.50173	716.19470	-708.51495	-25.24688	612.79077	-719.47552	-22.26246	567.02325	-622.48987	-77.19748	159.32918	-656.46136	-64.59843	856.02997	-694.45001	83.32554	571.57068	
2	0.020	-687.33246	-65.79518	1547.85718	-732.42749	294.18222	1527.15845	-621.46387	114.56255	1434.92712	-594.50427	1.23254	1048.22424	-590.33600	224.30730	1069.82532				-587.99811	0.56673	800.53528	-586.67114	220.90297	813.88507	-696.72107	274.77435	744.10419	-730.71161	251.59096	638.28564	-692.92279	146.30621	571.38702	-734.19873	247.29597	574.78082	-670.86591	22.42824	519.28156	-773.83105	255.84702	501.86365	-679.01349	208.20392	532.14844	-716.72705	79.45895	215.52180	-663.34424	-66.37524	164.15918	-711.24890	152.10129	216.18277	-771.20032	221.72102	205.19392	-882.64172	295.97809	144.42909	-674.36780	57.02934	156.03343	-603.06952	20.38225	165.27908	-675.14783	171.61003	156.74400	-594.59528	222.83142	173.36769	-667.58972	299.17075	159.62775	-630.50751	307.55765	162.58311	-561.90692	262.83340	166.37920	-528.19830	304.30228	146.37737	-674.64362	133.40034	1851.22205	-517.86029	-72.67062	142.57152	-796.21851	171.84628	184.18639	-766.48120	-4.26052	207.81265	-794.61652	56.40959	175.07506	-795.29791	98.15968	1058.26025	-765.55573	-32.44440	487.77887	-559.81696	-40.11797	164.51210	-875.98657	-78.65415	141.42352	-646.92468	284.79614	876.97272	-698.26672	-46.36314	716.00745	-708.51495	-25.24688	612.79077	-719.69196	-22.30776	567.06793	-622.48901	-77.20338	159.27605	-656.26837	-64.75584	856.09222	-694.54065	82.78508	571.31622	
3	0.040	-687.39270	-65.75182	1547.93994	-732.36322	294.34167	1527.18738	-621.46387	114.56255	1434.92712	-594.47687	1.36552	1048.13489	-590.27490	224.18761	1069.91724				-588.29083	0.60808	800.44836	-586.76111	220.96370	813.86035	-696.63184	274.88977	744.24451	-730.78516	251.66243	638.46393	-692.66803	146.21733	571.30475	-734.12238	247.37575	574.91260	-670.93054	22.38286	518.98364	-773.86285	256.03323	501.73923	-679.02386	208.28546	532.01508	-716.71442	79.34898	215.68544	-663.39587	-66.31400	163.96584	-711.32501	152.02406	216.21620	-771.63763	221.81627	205.48512	-882.64203	295.99655	144.51028	-674.36780	57.02934	156.03343	-603.21161	20.44045	165.51752	-675.04773	171.62137	156.88675	-594.66815	222.81160	173.42720	-667.68237	299.23212	159.82066	-630.43744	307.46841	162.45499	-561.66412	262.73526	166.16202	-528.27954	304.45236	146.40370	-674.58582	133.35464	1851.18005	-517.77032	-72.69400	142.83220	-796.30243	171.65637	184.08562	-766.38879	-4.19380	207.69656	-794.56226	56.35308	175.04279	-795.38129	98.37627	1058.32056	-765.60712	-32.72404	487.91147	-559.84082	-40.07858	164.43428	-875.80096	-78.78884	141.48030	-646.51556	284.98349	877.00372	-698.19690	-46.38698	716.10565	-708.51495	-25.24688	612.79077	-719.57257	-22.15598	566.96466	-622.45514	-77.46179	159.39571	-656.14362	-64.68462	856.05176	-694.59009	82.95959	571.26520	
4	0.060	-687.57159	-65.67701	1547.74390	-732.46649	294.22171	1527.18408	-621.68286	114.30442	1434.77441	-594.63104	1.28507	1048.06250	-590.39893	224.35703	1069.88123				-588.29083	0.60808	800.44836	-586.66437	220.84482	813.96136	-696.59979	274.92493	744.15564	-730.80524	251.76918	638.46411	-692.92279	146.30621	571.38702	-734.18115	247.62422	575.05768	-670.93872	22.32301	519.14935	-773.87378	255.79193	501.67432	-679.02386	208.28546	532.01508	-716.49896	79.29892	215.68729	-663.38409	-66.24509	163.87115	-711.41852	152.05450	216.12148	-771.63763	221.81627	205.48512	-882.56842	296.04892	144.50932	-674.48163	57.11444	156.14526	-603.14880	20.37680	165.51080	-675.06726	171.57303	157.08270	-594.62909	222.69757	173.49992	-667.64532	299.10141	159.63715	-630.39642	307.51675	162.49124	-561.60712	262.76981	166.26712	-528.19574	304.52661	146.42821	-674.65613	133.39224	1851.17493	-517.73853	-72.88016	142.73572	-796.17682	171.61362	183.98567	-766.48120	-4.26052	207.81265	-794.43079	56.22113	175.11382	-795.44098	98.53191	1058.23572	-765.35876	-32.58462	487.69562	-559.76184	-40.16571	164.57191	-876.10040	-78.72152	141.23677	-646.76202	284.80008	876.97571	-698.14130	-46.52555	716.29291	-708.54517	-25.52442	612.75281	-719.61310	-22.22834	566.88141	-622.44080	-77.27026	159.26714	-656.31549	-64.71699	856.19287	-694.78424	82.92667	571.38074	
5	0.080	-687.48346	-65.67816	1547.82495	-732.54700	294.23505	1527.10754	-621.68286	114.30442	1434.77441	-594.63782	1.25849	1048.09656	-590.36383	224.32359	1069.93787				-588.19769	0.66879	800.46686	-586.76501	221.07547	813.83002	-696.72107	274.77435	744.10419	-730.91626	251.60391	638.45593	-692.92279	146.30621	571.38702	-734.10437	247.34361	574.92767	-670.86591	22.42824	519.28156	-773.53149	255.59985	501.37915	-678.95935	208.17403	532.04749	-716.72705	79.45895	215.52180	-663.40558	-66.27631	164.01762	-711.32501	152.02406	216.21620	-771.39905	221.71947	205.32101	-882.65057	295.82376	144.33597	-674.36780	57.02934	156.03343	-603.31183	20.49328	165.50046	-675.00861	171.57059	156.91200	-594.51178	222.76276	173.30977	-667.74969	299.25616	159.75438	-630.48151	307.50092	162.55243	-561.84460	262.76031	166.33430	-528.19830	304.30228	146.37737	-674.62195	133.40456	1851.28662	-517.65894	-72.71120	142.67171	-796.26941	171.74384	184.00621	-766.42249	-4.34368	207.83505	-794.39392	56.32115	175.01277	-795.54425	98.23895	1058.35352	-765.50391	-32.60584	487.92810	-559.86914	-40.11418	164.44101	-875.85522	-78.73365	141.22168	-646.40405	284.91394	877.12823	-698.14130	-46.52555	716.29291	-708.57098	-25.44607	612.85876	-719.52765	-22.28420	566.79889	-622.37329	-77.30267	159.35718	-656.14362	-64.68462	856.05176	-694.59009	82.95959	571.26520	
6	0.100	-687.59705	-65.74390	1547.84375	-732.46649	294.22171	1527.18408	-621.68286	114.30442	1434.77441	-594.53754	1.22029	1048.11023	-590.39893	224.35703	1069.88123	-716.48798	79.31078	215.83456	-588.24817	0.74852	800.48438	-586.86432	220.94736	813.87018	-696.81201	274.87360	744.23224	-730.78516	251.66243	638.46393	-693.08020	146.26193	571.52112	-734.00012	247.32191	574.81079	-670.93054	22.38286	518.98364	-773.61450	255.47160	501.56818	-678.95935	208.17403	532.04749				-663.44409	-66.22697	164.14278	-711.32501	152.02406	216.21620	-771.47528	221.74341	205.42708	-882.71350	296.02438	144.50136	-674.36780	57.02934	156.03343	-603.14063	20.40377	165.51051	-675.00861	171.57059	156.91200	-594.55621	222.71739	173.44041	-667.60913	299.07315	159.77840	-630.44757	307.36517	162.45264	-561.82556	262.70929	166.16586	-528.20660	304.21338	146.40298	-674.68286	133.42252	1851.13342	-517.65894	-72.71120	142.67171	-796.32654	171.86621	184.12846	-766.33002	-4.27696	207.71896	-794.57166	56.41177	175.14581	-795.34564	98.39335	1058.26123	-765.57416	-32.58474	487.80249	-559.96191	-40.07442	164.28316	-876.00653	-78.66238	141.45602	-646.76202	284.80008	876.97571	-698.32050	-46.28741	715.80975	-708.51495	-25.24688	612.79077	-719.52765	-22.28420	566.79889	-622.45514	-77.46179	159.39571	-656.18591	-64.63889	856.15625	-694.59430	83.13112	571.46338	
